<?xml version="1.0" standalone="no"?><!DOCTYPE svg PUBLIC "-//W3C//DTD SVG 1.1//EN" "http://www.w3.org/Graphics/SVG/1.1/DTD/svg11.dtd"><svg t="1651233380214" class="icon" viewBox="0 0 1024 1024" version="1.1" xmlns="http://www.w3.org/2000/svg" p-id="4886" xmlns:xlink="http://www.w3.org/1999/xlink" width="200" height="200"><defs><style type="text/css">@font-face { font-family: feedback-iconfont; src: url("//at.alicdn.com/t/font_1031158_u69w8yhxdu.woff2?t=1630033759944") format("woff2"), url("//at.alicdn.com/t/font_1031158_u69w8yhxdu.woff?t=1630033759944") format("woff"), url("//at.alicdn.com/t/font_1031158_u69w8yhxdu.ttf?t=1630033759944") format("truetype"); }
</style></defs><path d="M482.4 927.2H246.7c-65.2 0-118.3-53-118.3-118.3V217.3c0-65.2 53-118.3 118.3-118.3h499C810.9 99 864 152 864 217.3v235.8c0 16.4-13.3 29.6-29.6 29.6-16.4 0-29.6-13.3-29.6-29.6V217.3c0-32.5-26.5-59-59-59h-499c-32.5 0-59 26.5-59 59v591.6c0 32.5 26.5 59 59 59h235.7c16.4 0 29.6 13.3 29.6 29.6-0.1 16.4-13.4 29.7-29.7 29.7z m0 0" p-id="4887"></path><path d="M672.5 510.6c-100.1 0-181.6 81.4-181.6 181.6 0 100.1 81.5 181.6 181.6 181.6S854 792.3 854 692.2s-81.4-181.6-181.5-181.6z m0 303.9c-67.4 0-122.3-54.8-122.3-122.3 0-67.4 54.9-122.3 122.3-122.3s122.3 54.8 122.3 122.3c-0.1 67.4-54.9 122.3-122.3 122.3z" p-id="4888"></path><path d="M867.7 916.8l-83.6-83.6c-11.5-11.5-11.5-30.2 0-41.8 11.5-11.5 30.2-11.5 41.8 0l83.6 83.6c11.5 11.5 11.5 30.2 0 41.8-11.6 11.5-30.3 11.5-41.8 0z m0 0" p-id="4889"></path><path d="M538.2 382c0 7.3 2.2 14.3 6.1 19.5 3.9 5.2 9.2 8.1 14.7 8.1h166.7c11.5 0 20.8-12.3 20.8-27.5s-9.3-27.5-20.8-27.5H559.1c-5.5 0-10.8 2.9-14.7 8.1-4 5-6.2 12-6.2 19.3zM496.6 277.9c0 15.2 9.3 27.5 20.8 27.5h208.4c11.5 0 20.8-12.3 20.8-27.5s-9.3-27.5-20.8-27.5H517.4c-5.5 0-10.8 2.9-14.7 8.1-3.9 5.1-6.1 12.1-6.1 19.4zM456.8 405.2h-45.4c-9.9 0-37.2 3.9-46.7-0.7-1.8-5.3 4.2-15 5.8-19.6l14.1-40.2L405 286c2.7-7.6-9.9-10.9-15.1-5.1-54.6 60.2-109.2 120.3-163.8 180.3-3.8 4.2 1.3 10 7.1 10h66.4c4.6 0 22.2-2.2 25.1 1.1 2.6 2.9-2.5 11.5-3.6 14.7L285 590.4c-2.7 7.6 9.9 10.9 15.1 5.1l163.8-180.3c3.8-4.2-1.3-10-7.1-10z" p-id="4890"></path></svg>