<?xml version="1.0" standalone="no"?><!DOCTYPE svg PUBLIC "-//W3C//DTD SVG 1.1//EN" "http://www.w3.org/Graphics/SVG/1.1/DTD/svg11.dtd"><svg t="1651233411453" class="icon" viewBox="0 0 1024 1024" version="1.1" xmlns="http://www.w3.org/2000/svg" p-id="1118" xmlns:xlink="http://www.w3.org/1999/xlink" width="200" height="200"><defs><style type="text/css">@font-face { font-family: feedback-iconfont; src: url("//at.alicdn.com/t/font_1031158_u69w8yhxdu.woff2?t=1630033759944") format("woff2"), url("//at.alicdn.com/t/font_1031158_u69w8yhxdu.woff?t=1630033759944") format("woff"), url("//at.alicdn.com/t/font_1031158_u69w8yhxdu.ttf?t=1630033759944") format("truetype"); }
</style></defs><path d="M512 64c247.424 0 448 200.576 448 448s-200.576 448-448 448S64 759.424 64 512 264.576 64 512 64z m0 47.146667C290.624 111.146667 111.146667 290.645333 111.146667 512c0 221.376 179.477333 400.853333 400.853333 400.853333 221.376 0 400.853333-179.477333 400.853333-400.853333 0-221.376-179.477333-400.853333-400.853333-400.853333z m0 47.168c195.328 0 353.685333 158.357333 353.685333 353.685333S707.328 865.685333 512 865.685333 158.314667 707.328 158.314667 512 316.672 158.314667 512 158.314667z m-20.288 409.856l-47.765333 133.12 74.88-0.106667-35.370667 114.624h0.512l95.082667-153.045333-61.845334-0.149334 35.626667-94.4-61.12-0.042666z m213.632-278.336H318.634667l-2.133334 0.106666c-9.386667 0.810667-20.224 6.976-20.224 17.6v199.210667c0 11.413333 12.544 17.706667 22.357334 17.706667h386.709333l2.133333-0.106667c9.429333-0.853333 20.245333-6.997333 20.245334-17.6v-199.210667l-0.213334-2.368c-1.578667-9.941333-13.013333-15.338667-22.165333-15.338666z m-17.365333 142.634666v56.810667H336.021333v-56.810667h351.957334z m-40.874667-107.456v73.834667H588.586667v-73.813333h58.538666z m-70.570667 0v73.834667h-58.517333v-73.813333h58.517333z m-70.549333 0v73.834667h-58.517333v-73.813333h58.517333z m-70.549333 0v73.834667h-58.538667v-73.813333h58.538667z" fill="#000000" p-id="1119"></path></svg>