<?xml version="1.0" standalone="no"?><!DOCTYPE svg PUBLIC "-//W3C//DTD SVG 1.1//EN" "http://www.w3.org/Graphics/SVG/1.1/DTD/svg11.dtd"><svg t="1651240822969" class="icon" viewBox="0 0 1216 1024" version="1.1" xmlns="http://www.w3.org/2000/svg" p-id="8788" xmlns:xlink="http://www.w3.org/1999/xlink" width="237.5" height="200"><defs><style type="text/css">@font-face { font-family: feedback-iconfont; src: url("//at.alicdn.com/t/font_1031158_u69w8yhxdu.woff2?t=1630033759944") format("woff2"), url("//at.alicdn.com/t/font_1031158_u69w8yhxdu.woff?t=1630033759944") format("woff"), url("//at.alicdn.com/t/font_1031158_u69w8yhxdu.ttf?t=1630033759944") format("truetype"); }
</style></defs><path d="M102.4 729.6c-19.2 0-32-12.8-32-32V236.8c0-64 51.2-121.6 121.6-121.6h716.8c19.2 0 32 12.8 32 32s-12.8 32-32 32H192c-32 0-57.6 25.6-57.6 57.6v460.8c0 19.2-19.2 32-32 32zM1004.8 947.2H313.6c-19.2 0-32-12.8-32-32s12.8-32 32-32h691.2c32 0 57.6-25.6 57.6-57.6V358.4c0-19.2 12.8-32 32-32s32 12.8 32 32v467.2c0 70.4-51.2 121.6-121.6 121.6z" p-id="8789"></path><path d="M128 1011.2c-70.4 0-121.6-57.6-121.6-121.6S57.6 768 128 768s121.6 57.6 121.6 121.6S192 1011.2 128 1011.2z m0-166.4c-25.6 0-44.8 19.2-44.8 44.8s19.2 44.8 44.8 44.8c25.6 0 44.8-19.2 44.8-44.8s-19.2-44.8-44.8-44.8zM448 531.2c-64 0-121.6-57.6-121.6-121.6S384 288 448 288s121.6 57.6 121.6 121.6S518.4 531.2 448 531.2z m0-166.4c-25.6 0-44.8 19.2-44.8 44.8 0 25.6 19.2 44.8 44.8 44.8 25.6 0 44.8-19.2 44.8-44.8 0-25.6-19.2-44.8-44.8-44.8zM774.4 768c-70.4 0-121.6-57.6-121.6-121.6s57.6-121.6 121.6-121.6 121.6 57.6 121.6 121.6-57.6 121.6-121.6 121.6z m0-166.4c-25.6 0-44.8 19.2-44.8 44.8s19.2 44.8 44.8 44.8c25.6 0 44.8-19.2 44.8-44.8s-19.2-44.8-44.8-44.8zM1094.4 288c-70.4 0-121.6-57.6-121.6-121.6S1030.4 44.8 1094.4 44.8s121.6 57.6 121.6 121.6-51.2 121.6-121.6 121.6z m0-166.4c-25.6 0-44.8 19.2-44.8 44.8 0 25.6 19.2 44.8 44.8 44.8 25.6 0 44.8-19.2 44.8-44.8 0-25.6-19.2-44.8-44.8-44.8zM364.8 576L256 748.8c-12.8 12.8-32 19.2-44.8 12.8-12.8-12.8-19.2-32-12.8-44.8l108.8-166.4c12.8-25.6 32-25.6 51.2-19.2 12.8 12.8 19.2 32 6.4 44.8zM1011.2 332.8l-108.8 166.4c-6.4 19.2-32 25.6-44.8 12.8-12.8-12.8-19.2-32-12.8-44.8l108.8-166.4c12.8-12.8 32-19.2 44.8-12.8 19.2 6.4 25.6 32 12.8 44.8zM614.4 556.8l-32-19.2c-19.2-12.8-19.2-38.4-6.4-51.2 12.8-12.8 32-19.2 44.8-6.4l32 25.6c12.8 12.8 19.2 32 6.4 44.8-12.8 19.2-32 19.2-44.8 6.4z" p-id="8790"></path></svg>