<?xml version="1.0" standalone="no"?><!DOCTYPE svg PUBLIC "-//W3C//DTD SVG 1.1//EN" "http://www.w3.org/Graphics/SVG/1.1/DTD/svg11.dtd"><svg t="1651233362759" class="icon" viewBox="0 0 1024 1024" version="1.1" xmlns="http://www.w3.org/2000/svg" p-id="4605" xmlns:xlink="http://www.w3.org/1999/xlink" width="200" height="200"><defs><style type="text/css">@font-face { font-family: feedback-iconfont; src: url("//at.alicdn.com/t/font_1031158_u69w8yhxdu.woff2?t=1630033759944") format("woff2"), url("//at.alicdn.com/t/font_1031158_u69w8yhxdu.woff?t=1630033759944") format("woff"), url("//at.alicdn.com/t/font_1031158_u69w8yhxdu.ttf?t=1630033759944") format("truetype"); }
</style></defs><path d="M127.965404 596.889148a42.634939 42.634939 0 0 1 42.634939 42.634939v341.079514a42.634939 42.634939 0 1 1-85.269878 0v-341.079514a42.634939 42.634939 0 0 1 42.634939-42.634939z m255.809635-85.269878a42.634939 42.634939 0 0 1 42.634939 42.634939v426.349392a42.634939 42.634939 0 1 1-85.269878 0v-426.349392a42.634939 42.634939 0 0 1 42.634939-42.634939z m479.216716-164.315056c11.170354-12.278862 37.945096-5.286732 32.146745 10.914545l-43.487638 124.749832-30.014998 85.610958c-3.410795 9.806036-16.201277 30.441347-12.364132 41.69697 20.294231 9.891306 78.448288 1.534858 99.424678 1.534858h96.610772c12.364132 0 23.363947 12.364132 15.178039 21.31747l-348.583263 383.884992c-11.170354 12.278862-37.859826 5.286732-32.146744-10.914545l76.91343-219.996286c2.472826-6.82159 13.387371-25.069344 7.759559-31.294045-6.224701-7.0774-43.487638-2.387557-53.378944-2.387557H529.671801c-12.364132 0-23.278677-12.278862-15.178038-21.232199 116.222844-127.904817 232.445688-255.809635 348.583262-383.884993zM1023.299127 0l-0.682159 269.367546c-9.464956 18.844643-23.705026 28.3096-42.4644 28.309599-18.759373 0-32.658363-9.379687-41.441161-28.309599V138.137203L501.021122 477.767128l-160.307371-136.175995L60.68747 508.549554c-24.728265 7.33321-42.805479 1.534858-54.316912-17.139245-11.426164-18.759373-7.503749-37.774556 11.852513-56.875009H18.223071l334.769542-196.4618 153.315241 130.462914 361.544284-281.987487h-97.207661c-28.565409-2.813906-42.805479-16.968706-42.805479-42.63494 0-25.836773 14.24007-40.417922 42.805479-43.913987H1023.299127z" fill="#2c2c2c" p-id="4606"></path></svg>